<svg width="1556" height="849" viewBox="0 0 1556 849" fill="none" xmlns="http://www.w3.org/2000/svg">
<path d="M947.588 224.045C848.983 175.084 899 85.9783 936.334 47.5454C967.416 4.81055 1052.09 -16.9344 1107.29 15.852C1151.44 42.081 1155.5 116.5 1135.15 163.937C1117.11 205.998 1046.19 273.006 947.588 224.045Z" fill="#CBCBF8"/>
<path d="M1307 348.5C1257 291.78 1265.5 217.5 1316 190.5C1360.89 166.5 1398.5 167.22 1425 181C1510.87 225.652 1505.44 245.226 1500 310.5C1496 358.5 1400 454 1307 348.5Z" fill="#FCFDC6"/>
<path d="M917 535C879.33 473.686 919.657 403.27 949 381.5C964.5 370 996.5 360.173 1030 361C1070.5 362 1122 418 1131.5 454C1141 490 1120 572.5 1078.5 586C1036.5 599.663 964 611.5 917 535Z" fill="#C8EFFA"/>
</svg>
